<svg xmlns="http://www.w3.org/2000/svg" xmlns:xlink="http://www.w3.org/1999/xlink" width="500" height="292" viewBox="0 0 500 292">
  <defs>
    <clipPath id="clip-Custom_Size_1">
      <rect width="500" height="292"/>
    </clipPath>
  </defs>
  <g id="Custom_Size_1" data-name="Custom Size – 1" clip-path="url(#clip-Custom_Size_1)">
    <g id="Icon_ionic-ios-menu" data-name="Icon ionic-ios-menu" transform="translate(-4.5 -10.125)">
      <path id="Path_1" data-name="Path 1" d="M483.667,51.792H25.333A20.9,20.9,0,0,1,4.5,30.958h0A20.9,20.9,0,0,1,25.333,10.125H483.667A20.9,20.9,0,0,1,504.5,30.958h0A20.9,20.9,0,0,1,483.667,51.792Z"/>
      <path id="Path_2" data-name="Path 2" d="M483.667,58.542H25.333A20.9,20.9,0,0,1,4.5,37.708h0A20.9,20.9,0,0,1,25.333,16.875H483.667A20.9,20.9,0,0,1,504.5,37.708h0A20.9,20.9,0,0,1,483.667,58.542Z" transform="translate(0 118.25)"/>
      <path id="Path_3" data-name="Path 3" d="M483.667,65.292H25.333A20.9,20.9,0,0,1,4.5,44.458h0A20.9,20.9,0,0,1,25.333,23.625H483.667A20.9,20.9,0,0,1,504.5,44.458h0A20.9,20.9,0,0,1,483.667,65.292Z" transform="translate(0 236.5)"/>
    </g>
  </g>
</svg>
